Brian_90_01									
version=1									
nRows=116									
nColumns=10									
inDegrees=yes									
endheader									
time	ground_force_vx	ground_force_vy	ground_force_vz	ground_force_px	ground_force_py	ground_force_pz	ground_torque_x	ground_torque_y	ground_torque_z
3.255	-21.256544	132.79631	-5.23252	-0.173388	0	-0.598612	0.000004	-1.681108	-0.000002
3.256	-21.077152	132.445801	-5.142836	-0.173254	0	-0.597915	0.000006	-1.588008	-0.000001
3.257	-21.079969	132.79689	-5.326037	-0.173861	0	-0.599622	0.000002	-1.604816	-0.000002
3.258	-20.989254	132.805374	-5.41779	-0.173836	0	-0.597674	-0.000003	-1.715066	-0.000001
3.259	-20.985489	133.515366	-5.234725	-0.172943	0	-0.597644	0.000006	-1.569726	-0.000003
3.26	-21.1668	133.163284	-5.052349	-0.174243	0	-0.598566	-0.000001	-1.600265	-0.000003
3.261	-20.810635	131.726791	-5.691162	-0.172996	0	-0.597716	0.000004	-1.683083	0
3.262	-21.082003	132.445236	-5.689414	-0.173514	0	-0.598736	0.000003	-1.702081	-0.000002
3.263	-20.812529	131.726639	-5.330605	-0.174608	0	-0.597607	0.000007	-1.614384	-0.000001
3.264	-20.627012	133.515045	-5.421601	-0.173098	0	-0.596708	0.000009	-1.637591	-0.000001
3.265	-20.897316	134.226181	-5.50923	-0.172814	0	-0.597745	-0.000001	-1.630603	-0.000002
3.266	-20.806709	132.079742	-5.147734	-0.173886	0	-0.596903	0	-1.702776	-0.000002
3.267	-21.077862	133.87326	-5.055022	-0.175165	0	-0.59793	-0.000001	-1.690767	-0.000001
3.268	-21.0791	133.164902	-5.234893	-0.173685	0	-0.598946	0.00001	-1.638671	-0.000002
3.269	-20.806047	132.805191	-5.056891	-0.173253	0	-0.598879	0.000001	-1.569738	-0.000001
3.27	-20.536659	132.446014	-5.059808	-0.173618	0	-0.597546	0.000001	-1.688957	-0.000002
3.271	-20.623833	132.803909	-4.877594	-0.173731	0	-0.59816	0.000004	-1.718762	-0.000001
3.272	-20.988386	132.79689	-5.235228	-0.174103	0	-0.597621	-0.000001	-1.577707	0
3.273	-21.078867	133.513748	-5.146231	-0.175085	0	-0.598273	0.000008	-1.716844	-0.000001
3.274	-20.989511	131.731598	-5.235343	-0.174133	0	-0.596923	0.000002	-1.593417	-0.000001
3.275	-21.077856	133.159698	-5.144321	-0.174216	0	-0.597932	0	-1.701215	0
3.276	-21.166704	132.08165	-5.231891	-0.173197	0	-0.5976	0.000005	-1.628831	-0.000001
3.277	-20.719332	133.518433	-5.149214	-0.173919	0	-0.597611	0.000007	-1.613879	-0.000002
3.278	-20.722639	131.375137	-5.601355	-0.173958	0	-0.599333	0.000011	-1.658019	-0.000001
3.279	-20.810204	132.08313	-5.420879	-0.174426	0	-0.595345	0.000007	-1.603162	-0.000001
3.28	-20.901966	133.86763	-5.600816	-0.174319	0	-0.597427	-0.000001	-1.552868	-0.000001
3.281	-20.630091	133.167145	-5.152102	-0.174345	0	-0.597596	0.000005	-1.815766	-0.000001
3.282	-21.076082	131.375366	-5.145043	-0.174344	0	-0.59854	0.000002	-1.69139	-0.000003
3.283	-20.451244	132.08252	-5.333084	-0.173778	0	-0.597615	0.000004	-1.680589	0
3.284	-21.074987	132.793335	-5.32451	-0.173337	0	-0.597321	-0.000003	-1.686369	-0.000002
3.285	-20.719646	131.374619	-5.239458	-0.173425	0	-0.597233	0.000003	-1.600186	-0.000001
3.286	-20.626493	133.146194	-5.239499	-0.173019	0	-0.596969	0.000003	-1.619271	-0.000001
3.287	-20.899759	133.164017	-5.418383	-0.173887	0	-0.598333	0.000007	-1.645979	0
3.288	-20.896515	133.513489	-5.14838	-0.173714	0	-0.596968	0.000003	-1.754089	-0.000001
3.289	-20.811087	133.158508	-5.418694	-0.17413	0	-0.596699	0.000007	-1.700167	0
3.29	-20.633966	132.79921	-5.424291	-0.175057	0	-0.595371	0.000004	-1.677099	-0.000001
3.291	-20.808386	132.804642	-5.33168	-0.174588	0	-0.596974	0	-1.771663	-0.000003
3.292	-20.538025	132.4478	-5.152126	-0.173359	0	-0.59855	0.000005	-1.665335	-0.000001
3.293	-20.986994	133.50798	-5.506719	-0.174261	0	-0.595455	0.000006	-1.724417	-0.000001
3.294	-21.078447	133.515625	-5.329215	-0.174557	0	-0.597007	0.000001	-1.753641	0
3.295	-20.549934	132.817825	-5.785572	-0.1745	0	-0.598422	0.000001	-1.691662	-0.000001
3.296	-20.808487	133.161331	-5.334621	-0.174925	0	-0.598313	0.000003	-1.6372	-0.000001
3.297	-20.724329	133.87706	-5.603273	-0.174533	0	-0.598087	0.000009	-1.721109	-0.000001
3.298	-20.451473	131.744278	-5.334521	-0.173433	0	-0.596615	-0.000001	-1.591399	-0.000001
3.299	-20.716476	131.726563	-5.508995	-0.172708	0	-0.596992	-0.000001	-1.62814	0.000001
3.3	-20.361515	133.507889	-5.337205	-0.173801	0	-0.597327	0.000004	-1.756825	-0.000001
3.301	-20.893648	133.167252	-5.416997	-0.173103	0	-0.598331	0.000005	-1.606978	-0.000001
3.302	-21.07934	134.936325	-5.329208	-0.175119	0	-0.596442	0	-1.7311	-0.000002
3.303	-20.54814	133.885361	-5.603531	-0.174482	0	-0.596124	0.000003	-1.797185	-0.000001
3.304	-20.893011	133.51915	-5.151244	-0.173455	0	-0.5976	-0.000002	-1.667795	0
3.305	-20.63546	133.167587	-5.780194	-0.174068	0	-0.596485	0.000009	-1.602211	-0.000001
3.306	-20.987534	133.867706	-5.512364	-0.174344	0	-0.596754	0.000008	-1.714691	0
3.307	-20.637533	133.882736	-5.695782	-0.174235	0	-0.598742	0.000008	-1.612824	-0.000001
3.308	-20.627026	133.875076	-5.246092	-0.173979	0	-0.596691	0.000004	-1.666302	-0.000001
3.309	-20.455988	133.527267	-5.873158	-0.173312	0	-0.598457	0.000003	-1.553463	0
3.31	-20.544878	135.995621	-5.701473	-0.175696	0	-0.595631	0.000003	-1.682272	-0.000001
3.311	-20.452246	132.1306	-5.427919	-0.174594	0	-0.595652	0.000002	-1.686335	-0.000001
3.312	-20.273561	132.085938	-5.873417	-0.172137	0	-0.598073	0.000001	-1.554497	-0.000001
3.313	-20.361235	132.788498	-5.70109	-0.173625	0	-0.596444	0.000001	-1.636825	-0.000001
3.314	-20.984634	132.796875	-5.86903	-0.172777	0	-0.597793	0.000005	-1.70972	-0.000001
3.315	-20.808905	132.441879	-5.156294	-0.173957	0	-0.595949	0.000006	-1.651381	-0.000002
3.316	-20.812428	133.502228	-5.686578	-0.173945	0	-0.596459	0.00001	-1.694844	-0.000001
3.317	-20.634119	133.878174	-5.516425	-0.173973	0	-0.597713	0.000008	-1.619637	-0.000002
3.318	-20.984632	133.165649	-5.59754	-0.173133	0	-0.596767	0.000007	-1.579436	0
3.319	-20.457287	134.929489	-5.695727	-0.172853	0	-0.595881	0	-1.732243	-0.000002
3.32	-20.801874	132.116577	-5.332576	-0.17308	0	-0.596941	0	-1.69239	-0.000002
3.321	-20.099585	134.205078	-5.51861	-0.173619	0	-0.596755	0	-1.616735	-0.000001
3.322	-20.797709	133.171127	-5.242428	-0.173866	0	-0.595674	0.000009	-1.723772	0
3.323	-20.900053	132.455276	-5.595991	-0.173467	0	-0.597685	0.000008	-1.599136	-0.000002
3.324	-20.637598	133.86235	-5.694693	-0.174225	0	-0.597138	0.000008	-1.698912	-0.000002
3.325	-20.806067	134.221588	-5.512939	-0.173066	0	-0.597735	0.000004	-1.66853	-0.000003
3.326	-20.631542	133.171951	-5.512178	-0.173276	0	-0.596411	0.000004	-1.697105	-0.000002
3.327	-20.809767	133.517975	-5.689219	-0.173153	0	-0.597754	0.000002	-1.789242	-0.000001
3.328	-20.454706	132.807846	-5.429079	-0.173664	0	-0.59734	0	-1.630232	-0.000002
3.329	-20.629999	133.85849	-5.958979	-0.173187	0	-0.595926	0.000003	-1.745854	-0.000003
3.33	-20.632813	133.875	-5.789908	-0.173439	0	-0.597137	0.000004	-1.621305	-0.000002
3.331	-20.626083	133.875	-5.337758	-0.172924	0	-0.597667	0.000006	-1.619033	-0.000002
3.332	-20.898891	133.875	-5.776216	-0.174037	0	-0.595564	0.000004	-1.640144	-0.000002
3.333	-20.28171	133.175568	-5.789692	-0.172922	0	-0.59645	0.000001	-1.665006	0
3.334	-20.62394	133.863205	-5.429176	-0.173958	0	-0.595433	0	-1.651337	-0.000002
3.335	-20.365841	134.236023	-5.517671	-0.174492	0	-0.597056	-0.000004	-1.723607	-0.000002
3.336	-20.893137	134.587769	-5.689917	-0.173699	0	-0.597799	0.000007	-1.71994	-0.000001
3.337	-20.812128	134.24057	-5.604576	-0.173584	0	-0.597772	0	-1.615106	-0.000001
3.338	-20.371086	134.234375	-5.87673	-0.173443	0	-0.597201	0.000006	-1.668105	-0.000003
3.339	-20.456335	133.881348	-6.237495	-0.173905	0	-0.596965	0.000005	-1.631169	0
3.34	-20.452253	133.176773	-5.707761	-0.173761	0	-0.595162	0.000007	-1.735807	-0.000001
3.341	-20.887484	133.854462	-5.065852	-0.173273	0	-0.597555	0.00001	-1.687455	-0.000002
3.342	-20.37303	133.874863	-5.86476	-0.173097	0	-0.597506	0	-1.661313	-0.000001
3.343	-20.622066	132.119095	-5.518542	-0.172238	0	-0.598641	0.000006	-1.592157	-0.000001
3.344	-20.54071	133.841461	-5.602753	-0.172877	0	-0.596488	0.000002	-1.634881	-0.000001
3.345	-20.543852	133.522446	-5.961123	-0.172803	0	-0.595896	0.000002	-1.671728	0
3.346	-20.712524	133.868103	-5.340159	-0.172164	0	-0.597962	0.000001	-1.663508	-0.000001
3.347	-20.717735	133.522598	-5.240019	-0.173368	0	-0.597003	0	-1.693631	-0.000001
3.348	-20.987762	133.1633	-5.94796	-0.172863	0	-0.597509	0.000006	-1.767349	-0.000001
3.349	-20.811296	132.804001	-5.429717	-0.173508	0	-0.595085	-0.000002	-1.713624	-0.000002
3.35	-21.072268	133.151031	-5.414134	-0.172374	0	-0.595707	0	-1.729651	-0.000001
3.351	-20.459379	133.510345	-5.782118	-0.172508	0	-0.596796	0.000006	-1.585798	-0.000001
3.352	-20.714752	134.223679	-5.872256	-0.171722	0	-0.595909	0.000002	-1.703292	-0.000002
3.353	-20.635073	134.588318	-6.055799	-0.173057	0	-0.596603	0.000005	-1.782487	-0.000001
3.354	-20.983812	133.886017	-5.695349	-0.172505	0	-0.596808	0.000005	-1.627669	-0.000001
3.355	-21.077705	133.52121	-5.598846	-0.172703	0	-0.597417	0.000002	-1.670837	-0.000002
3.356	-20.813816	134.215363	-5.778594	-0.17227	0	-0.594612	0.000011	-1.684863	-0.000002
3.357	-20.452089	133.880615	-5.428098	-0.172336	0	-0.59604	0.000006	-1.807207	-0.000003
3.358	-20.363665	134.582123	-5.784809	-0.173766	0	-0.596201	0	-1.695756	-0.000001
3.359	-21.330536	134.939545	-5.329229	-0.172614	0	-0.596425	0.000003	-1.7006	-0.000003
3.36	-20.823298	134.591904	-5.956075	-0.173898	0	-0.596588	-0.000002	-1.702069	-0.000002
3.361	-20.542738	133.886963	-5.700122	-0.172385	0	-0.597118	0	-1.61705	0
3.362	-20.722389	133.176178	-6.139756	-0.172505	0	-0.597561	0.000002	-1.702699	0
3.363	-20.805241	134.561386	-5.698561	-0.171836	0	-0.594931	0.000004	-1.678622	0
3.364	-20.543739	134.946701	-5.783744	-0.172345	0	-0.596198	-0.000001	-1.720996	-0.000001
3.365	-20.714611	133.541061	-5.603857	-0.17207	0	-0.596432	0.000004	-1.794792	-0.000001
3.366	-20.71969	133.515625	-5.602024	-0.172844	0	-0.597722	0.000001	-1.648833	0
3.367	-20.808884	134.56633	-6.046154	-0.17158	0	-0.597913	0.000004	-1.549479	-0.000002
3.368	-20.809587	133.888184	-5.698616	-0.172944	0	-0.596186	-0.000004	-1.764487	0
3.369	-20.718536	131.061584	-5.60134	-0.171479	0	-0.596651	0.000005	-1.664175	0
3.37	-20.360409	133.468048	-5.692778	-0.170646	0	-0.595494	0.000002	-1.728121	-0.000002
